<svg id="notification" xmlns="http://www.w3.org/2000/svg" xmlns:xlink="http://www.w3.org/1999/xlink" viewBox="0 0 633.25113 886.41887">
  <defs>
    <style>
      .cls-1 {
        fill: #e6e7e8;
      }

      .cls-2 {
        fill: #78c49e;
      }

      .cls-19, .cls-3 {
        fill: #fff;
      }

      .cls-4 {
        fill: #c6b7d1;
      }

      .cls-5 {
        fill: #fcf7ba;
      }

      .cls-6 {
        fill: #a0aaa4;
      }

      .cls-7 {
        fill: #f7aaac;
      }

      .cls-8 {
        fill: #afcfe3;
      }

      .cls-12, .cls-16, .cls-17, .cls-20, .cls-22, .cls-24, .cls-9 {
        fill: none;
      }

      .cls-19, .cls-9 {
        stroke: #fff;
      }

      .cls-12, .cls-16, .cls-17, .cls-19, .cls-22, .cls-24, .cls-9 {
        stroke-miterlimit: 10;
      }

      .cls-12, .cls-17, .cls-19, .cls-9 {
        stroke-width: 2px;
      }

      .cls-10 {
        fill: #edcaa6;
      }

      .cls-11 {
        fill: #da9f5e;
      }

      .cls-12 {
        stroke: #da9f5e;
      }

      .cls-13 {
        fill: url(#linear-gradient);
      }

      .cls-14 {
        fill: url(#linear-gradient-2);
      }

      .cls-15 {
        fill: #fbf6bb;
      }

      .cls-16, .cls-17 {
        stroke: #e8c26f;
      }

      .cls-16 {
        stroke-width: 4px;
      }

      .cls-18 {
        fill: #bcbec0;
      }

      .cls-21 {
        fill: #8ac4bf;
      }

      .cls-22 {
        stroke: #f9f0e6;
        stroke-width: 3px;
      }

      .cls-23 {
        fill: #95a6bb;
      }

      .cls-24 {
        stroke: #afcfe2;
        stroke-width: 13px;
      }

      .cls-25 {
        fill: #889dbc;
      }
    </style>
    <linearGradient id="linear-gradient" x1="-151.01894" y1="504.19614" x2="568.58257" y2="1136.57322" gradientUnits="userSpaceOnUse">
      <stop offset="0.24896" stop-color="#fff"/>
      <stop offset="1" stop-color="#bd7386"/>
    </linearGradient>
    <linearGradient id="linear-gradient-2" x1="267.19377" y1="669.62485" x2="84.11993" y2="887.45954" gradientUnits="userSpaceOnUse">
      <stop offset="0.18867" stop-color="#fff"/>
      <stop offset="1" stop-color="#8c6b87"/>
    </linearGradient>
  </defs>
  <title>apps_max</title>
<a xlink:href="#notifications" class="link2notis" data-navigate="#notifications">
    <polygon class="cls-1" points="395.042 217.18 454.594 114.033 573.699 114.033 633.251 217.18 573.699 320.328 454.594 320.328 395.042 217.18"/>
  <polygon class="cls-2" points="517.38 259.033 476.068 280.752 483.958 234.751 450.537 202.173 496.724 195.462 517.38 153.609 538.035 195.462 584.223 202.173 550.801 234.751 558.691 280.752 517.38 259.033"/>
  <rect class="cls-3" x="564.47995" y="335.76513" width="31.69354" height="10.18943" transform="translate(858.23953 -368.08331) rotate(90)"/>
  <circle class="cls-3" cx="517.37969" cy="240.94015" r="5.09471"/>
</a>
<a xlink:href="#todo" data-navigate="#todo">
  <polygon class="cls-1" points="199.557 103.148 259.11 0 378.214 0 437.767 103.148 378.214 206.295 259.11 206.295 199.557 103.148"/>
  <circle class="cls-4" cx="318.66359" cy="103.14765" r="56.80777"/>
  <rect class="cls-5" x="356.27447" y="232.59706" width="30.33291" height="10.18943" transform="translate(236.16696 -325.93564) rotate(47.94418)"/>
  <rect class="cls-5" x="375.55139" y="223.77283" width="41.56741" height="10.18943" transform="translate(780.97184 4.69679) rotate(137.94418)"/>
</a>
<a xlink:href="#contacts" data-navigate="#contacts">
  <polygon class="cls-1" points="0 217.18 59.552 114.033 178.657 114.033 238.209 217.18 178.657 320.328 59.552 320.328 0 217.18"/>
  <ellipse class="cls-6" cx="85.46265" cy="227.21245" rx="40.75693" ry="36.28361"/>
  <path class="cls-7" d="M256.45062,334.10465c0,12.61068-5.74167,24.0275-15.0247,32.29166a52.13943,52.13943,0,0,1-16.30551,9.78688A56.62356,56.62356,0,0,1,205.1531,379.772a54.47518,54.47518,0,0,1-36.27282-13.37564c-9.283-8.26416-15.0247-19.681-15.0247-32.29166s5.74167-24.0275,15.0247-32.29166a55.87117,55.87117,0,0,1,72.54565,0C250.70895,310.07715,256.45062,321.494,256.45062,334.10465Z" transform="translate(-62.94703 -128.61643)"/>
  <path class="cls-7" d="M225.46813,371.60709a9.60132,9.60132,0,0,0,5.77742-4.61652c1.406,13.52861,14.15785,17.45151,22.1708,25.56278-11.749-5.65331-25.64144-5.614-32.971-18.38125Z" transform="translate(-62.94703 -128.61643)"/>
  <path class="cls-6" d="M152.74867,379.26673a9.60132,9.60132,0,0,1-5.77742-4.61652c-1.406,13.52861-14.15785,17.45151-22.1708,25.56278,11.749-5.65331,25.64144-5.614,32.971-18.38125Z" transform="translate(-62.94703 -128.61643)"/>
  <circle class="cls-3" cx="131.15243" cy="207.02966" r="4.06806"/>
  <circle class="cls-3" cx="142.19748" cy="207.02966" r="4.06806"/>
  <circle class="cls-3" cx="153.25971" cy="207.02966" r="4.06806"/>
</a>
<a xlink:href="#records_nav" data-navigate="#records_nav">
  <polygon class="cls-1" points="0 443.209 59.552 340.062 178.657 340.062 238.209 443.209 178.657 546.357 59.552 546.357 0 443.209"/>
  <polygon class="cls-8" points="61.74 410.552 111.923 381.579 162.105 410.552 162.105 468.498 111.923 497.471 61.74 468.498 61.74 410.552"/>
  <polygon class="cls-8" points="102.555 449.388 139.512 428.05 176.469 449.388 176.469 492.062 139.512 513.399 102.555 492.062 102.555 449.388"/>
  <polygon class="cls-3" points="160.148 442.118 173.623 450.065 138.169 470.111 122.694 461.165 160.148 442.118"/>
  <line class="cls-9" x1="111.92279" y1="491.57676" x2="111.92279" y2="439.65657"/>
  <line class="cls-9" x1="111.92279" y1="439.65657" x2="160.21096" y2="411.77738"/>
  <line class="cls-9" x1="111.92279" y1="439.65657" x2="65.35808" y2="412.6286"/>
  <polygon class="cls-3" points="168.955 480.695 152.192 490.695 152.192 486.985 168.955 476.985 168.955 480.695"/>
  <polygon class="cls-3" points="150.501 436.512 133.738 446.512 133.738 442.802 150.501 432.802 150.501 436.512"/>
</a>
<a xlink:href="#mail_nav" data-navigate="#mail_nav">
  <polygon class="cls-1" points="199.557 555.206 259.11 452.058 378.214 452.058 437.767 555.206 378.214 658.353 259.11 658.353 199.557 555.206"/>
  <rect class="cls-10" x="259.47549" y="534.55121" width="124.00827" height="62.49148"/>
  <polygon class="cls-10" points="321.48 572.051 259.475 572.051 259.475 534.551 321.48 497.051 383.484 534.551 383.484 572.051 321.48 572.051"/>
  <polygon class="cls-11" points="302.777 534.551 383.078 534.551 359.667 548.351 323.478 570.268 293.607 553.663 259.475 534.551 302.777 534.551"/>
  <line class="cls-12" x1="306.70884" y1="559.22404" x2="358.95772" y2="589.58024"/>
  <rect class="cls-3" x="313.29773" y="520.43925" width="16.23765" height="43.58063"/>
  <polygon class="cls-3" points="321.48 511.403 306.348 525.542 336.612 525.542 321.48 511.403"/>
</a>
<a xlink:href="#glitch_app" data-navigate="#glitch_app">
  <polygon class="cls-1" points="0 669.239 59.552 566.091 178.657 566.091 238.209 669.239 178.657 772.386 59.552 772.386 0 669.239"/>
  <ellipse class="cls-5" cx="141.5825" cy="657.55903" rx="22.45549" ry="23.25691"/>
  <path class="cls-13" d="M248.97241,811.44931a12.61048,12.61048,0,0,0-2.34406.22656c-1.20752-5.004-6.299-8.76208-12.40051-8.76208a13.8358,13.8358,0,0,0-7.738,2.31079c-1.53845-6.553-6.56427-11.36426-12.54193-11.36426-7.20013,0-13.037,6.9718-13.037,15.572a18.4,18.4,0,0,0,.44684,3.98352H178.096v2.74426a10.321,10.321,0,1,0,0,20.22351v0.20923h68.80676V836.4083A12.5658,12.5658,0,1,0,248.97241,811.44931Z" transform="translate(-62.94703 -128.61643)"/>
  <path class="cls-14" d="M192.34546,776.69907a22.86937,22.86937,0,0,0-6.838,1.04028,24.45112,24.45112,0,1,0-48.06787-6.46606,18.13258,18.13258,0,0,0-27.458,15.57837c0,0.24146.02673,0.47583,0.03607,0.715h-0.03607v0.80127a17.087,17.087,0,0,0,0,34.00269v0.0863h82.36389A22.87891,22.87891,0,0,0,192.34546,776.69907Z" transform="translate(-62.94703 -128.61643)"/>
</a>
<a xlink:href="#notes_nav" data-navigate="#notes_nav">
  <polygon class="cls-1" points="395.042 669.239 454.594 566.091 573.699 566.091 633.251 669.239 573.699 772.386 454.594 772.386 395.042 669.239"/>
  <rect class="cls-15" x="530.98523" y="742.49185" width="92.86304" height="110.72621" transform="translate(-386.46097 271.361) rotate(-30.27865)"/>
  <line class="cls-16" x1="454.46602" y1="658.55502" x2="534.66102" y2="611.73293"/>
  <line class="cls-17" x1="461.76141" y1="671.05027" x2="541.95641" y2="624.22818"/>
  <line class="cls-17" x1="468.65869" y1="682.86365" x2="548.85369" y2="636.04157"/>
  <line class="cls-17" x1="475.50853" y1="694.59577" x2="555.70352" y2="647.77368"/>
  <line class="cls-17" x1="482.7215" y1="706.94986" x2="562.9165" y2="660.12778"/>
  <line class="cls-17" x1="490.03606" y1="719.47796" x2="570.23106" y2="672.65587"/>
  <line class="cls-17" x1="496.33472" y1="730.26604" x2="576.52971" y2="683.44395"/>
  <circle class="cls-18" cx="536.21561" cy="784.57086" r="3.36999" transform="translate(-385.38357 248.77497) rotate(-30.27865)"/>
  <circle class="cls-18" cx="544.83975" cy="779.53563" r="3.36999" transform="matrix(0.86358, -0.50421, 0.50421, 0.86358, -381.6683, 252.43643)"/>
  <circle class="cls-18" cx="553.4639" cy="774.5004" r="3.36999" transform="matrix(0.86358, -0.50421, 0.50421, 0.86358, -377.95303, 256.09789)"/>
  <circle class="cls-18" cx="562.08805" cy="769.46517" r="3.36999" transform="translate(-374.23776 259.75934) rotate(-30.27865)"/>
  <circle class="cls-18" cx="543.31194" cy="796.72518" r="3.36999" transform="translate(-390.54379 254.01104) rotate(-30.27865)"/>
  <circle class="cls-18" cx="551.93609" cy="791.68995" r="3.36999" transform="matrix(0.86358, -0.50421, 0.50421, 0.86358, -386.82852, 257.67249)"/>
  <circle class="cls-18" cx="560.56023" cy="786.65472" r="3.36999" transform="translate(-383.11325 261.33395) rotate(-30.27865)"/>
  <circle class="cls-18" cx="550.20922" cy="808.53857" r="3.36999" transform="matrix(0.86358, -0.50421, 0.50421, 0.86358, -395.55927, 259.10023)"/>
  <circle class="cls-18" cx="558.83337" cy="803.50334" r="3.36999" transform="matrix(0.86358, -0.50421, 0.50421, 0.86358, -391.844, 262.76168)"/>
  <circle class="cls-18" cx="567.45752" cy="798.4681" r="3.36999" transform="matrix(0.86358, -0.50421, 0.50421, 0.86358, -388.12873, 266.42314)"/>
  <circle class="cls-18" cx="569.18438" cy="781.61948" r="3.36999" transform="matrix(0.86358, -0.50421, 0.50421, 0.86358, -379.39798, 264.9954)"/>
  <circle class="cls-18" cx="570.71219" cy="764.42993" r="3.36999" transform="matrix(0.86358, -0.50421, 0.50421, 0.86358, -370.52249, 263.4208)"/>
  <circle class="cls-18" cx="579.33634" cy="759.3947" r="3.36999" transform="matrix(0.86358, -0.50421, 0.50421, 0.86358, -366.80722, 267.08225)"/>
</a>
<a xlink:href="#glitch_app" data-navigate="#glitch_app">
  <g>
    <polygon class="cls-1" points="395.042 443.209 454.594 340.062 573.699 340.062 633.251 443.209 573.699 546.357 454.594 546.357 395.042 443.209"/>
    <circle class="cls-18" cx="514.14648" cy="446.51151" r="61.44282"/>
    <polygon class="cls-3" points="514.146 421.845 535.509 434.178 535.509 458.845 514.146 471.178 492.784 458.845 492.784 434.178 514.146 421.845"/>
    <circle class="cls-18" cx="514.14648" cy="446.51151" r="7.1094"/>
    <line class="cls-19" x1="534.57229" y1="434.19512" x2="534.57229" y2="388.54746"/>
    <line class="cls-9" x1="513.70918" y1="422.77421" x2="474.74433" y2="399.93325"/>
    <line class="cls-9" x1="499.24391" y1="431.48476" x2="453.79388" y2="458.07544"/>
    <line class="cls-9" x1="493.78727" y1="458.84493" x2="493.78727" y2="504.13671"/>
    <line class="cls-9" x1="514.52025" y1="470.1055" x2="553.57237" y2="492.87614"/>
    <line class="cls-9" x1="534.87171" y1="458.09577" x2="574.15171" y2="435.84542"/>
    <path class="cls-20" d="M597.51933,517.16389" transform="translate(-62.94703 -128.61643)"/>
  </g>
</a>
<a xlink:href="#glitch_app" data-navigate="#glitch_app">
  <polygon class="cls-1" points="199.557 329.177 259.11 226.029 378.214 226.029 437.767 329.177 378.214 432.324 259.11 432.324 199.557 329.177"/>
  <circle class="cls-21" cx="318.66186" cy="329.17674" r="59.18638"/>
  <g>
    <path class="cls-22" d="M330.49161,428.17258c1.66757,0.69006,17.79138,7.03455,33.56366-2.5293,15.28592-9.26892,17.44571-25.72107,17.66638-27.66333" transform="translate(-62.94703 -128.61643)"/>
    <path class="cls-22" d="M322.42252,458.29887c1.78919-.23617,18.92506-2.8036,27.80233-18.97227,8.60353-15.67008,2.24789-30.998,1.46787-32.79034" transform="translate(-62.94703 -128.61643)"/>
    <path class="cls-22" d="M329.82321,488.03028c1.4314-1.09913,14.98779-11.89052,14.59139-30.33163-0.38416-17.87245-13.55224-27.969-15.124-29.1312" transform="translate(-62.94703 -128.61643)"/>
    <path class="cls-22" d="M352.29937,509.52891c0.69006-1.66757,7.03455-17.79138-2.5293-33.56366-9.26892-15.28592-25.72107-17.44571-27.66333-17.66638" transform="translate(-62.94703 -128.61643)"/>
    <path class="cls-22" d="M381.98793,518.09493c-0.23617-1.78919-2.8036-18.92506-18.97227-27.80233-15.67008-8.60353-30.998-2.24789-32.79034-1.46787" transform="translate(-62.94703 -128.61643)"/>
    <path class="cls-22" d="M411.45306,508.99807c-1.09913-1.4314-11.89052-14.98779-30.33163-14.59139-17.87245.38416-27.969,13.55224-29.1312,15.124" transform="translate(-62.94703 -128.61643)"/>
    <path class="cls-22" d="M432.72618,488.21808c-1.66757-.69006-17.79138-7.03455-33.56366,2.5293-15.28592,9.26892-17.44571,25.72107-17.66638,27.66333" transform="translate(-62.94703 -128.61643)"/>
    <path class="cls-22" d="M440.79527,458.03259c-1.78919.23617-18.92506,2.8036-27.80233,18.97227-8.60353,15.67008-2.24789,30.998-1.46787,32.79034" transform="translate(-62.94703 -128.61643)"/>
    <path class="cls-22" d="M433.39458,428.06176c-1.4314,1.09913-14.98779,11.89052-14.59139,30.33163,0.38416,17.87245,13.55224,27.969,15.124,29.1312" transform="translate(-62.94703 -128.61643)"/>
    <path class="cls-22" d="M411.81442,406.80255c-0.69006,1.66757-7.03455,17.79138,2.5293,33.56366,9.26892,15.28592,25.72107,17.44571,27.66333,17.66638" transform="translate(-62.94703 -128.61643)"/>
    <path class="cls-22" d="M381.22986,398.29573c0.23617,1.78919,2.8036,18.92506,18.97227,27.80233,15.67008,8.60353,30.998,2.24789,32.79034,1.46787" transform="translate(-62.94703 -128.61643)"/>
    <path class="cls-22" d="M352.25651,407.39259c1.09913,1.4314,11.89052,14.98779,30.33163,14.59139,17.87245-.38416,27.969-13.55224,29.1312-15.124" transform="translate(-62.94703 -128.61643)"/>
  </g>
</a>
<a xlink:href="#glitch_app" data-navigate="#glitch_app">
  <polygon class="cls-1" points="199.557 783.271 259.11 680.124 378.214 680.124 437.767 783.271 378.214 886.419 259.11 886.419 199.557 783.271"/>
  <circle class="cls-23" cx="319.15909" cy="783.27121" r="59.18638"/>
  <circle class="cls-3" cx="319.15909" cy="782.07085" r="26.2003"/>
  <g>
    <g>
      <rect class="cls-8" x="376.15222" y="882.43097" width="10.91335" height="10.91335" transform="translate(-579.00775 401.27807) rotate(-45)"/>
      <rect class="cls-8" x="376.15222" y="931.43091" width="10.91335" height="10.91335" transform="translate(-613.65594 415.62982) rotate(-45)"/>
      <rect class="cls-8" x="363.90224" y="885.71335" width="10.91335" height="10.91335" transform="translate(-649.98938 888.67512) rotate(-75)"/>
      <rect class="cls-8" x="388.40221" y="928.14854" width="10.91335" height="10.91335" transform="translate(-672.81971 943.79243) rotate(-75)"/>
      <rect class="cls-8" x="354.93463" y="894.68096" width="10.91335" height="10.91335" transform="translate(-478.74578 1352.60522) rotate(-105)"/>
      <rect class="cls-8" x="397.36982" y="919.18093" width="10.91335" height="10.91335" transform="translate(-448.99271 1424.4355) rotate(-105)"/>
      <rect class="cls-8" x="351.65225" y="906.93094" width="10.91335" height="10.91335" transform="translate(-98.47943 1681.44079) rotate(-135)"/>
      <rect class="cls-8" x="400.65219" y="906.93094" width="10.91335" height="10.91335" transform="translate(-14.83131 1716.08898) rotate(-135)"/>
      <rect class="cls-8" x="354.93463" y="919.18093" width="10.91335" height="10.91335" transform="matrix(-0.96593, -0.25882, 0.25882, -0.96593, 406.24171, 1782.42863)"/>
      <rect class="cls-8" x="397.36982" y="894.68096" width="10.91335" height="10.91335" transform="matrix(-0.96593, -0.25882, 0.25882, -0.96593, 496.00721, 1745.24655)"/>
      <rect class="cls-8" x="363.90224" y="928.14854" width="10.91335" height="10.91335" transform="translate(904.82 1611.18504) rotate(165)"/>
      <rect class="cls-8" x="388.40221" y="885.71335" width="10.91335" height="10.91335" transform="matrix(-0.96593, 0.25882, -0.25882, -0.96593, 942.00208, 1521.41954)"/>
    </g>
    <g>
      <rect class="cls-8" x="383.26477" y="867.00289" width="17.07341" height="17.07341" transform="translate(-438.49961 171.38364) rotate(-29.02058)"/>
      <rect class="cls-8" x="362.16141" y="940.69893" width="17.07341" height="17.07341" transform="translate(-476.90092 170.39877) rotate(-29.02058)"/>
      <rect class="cls-8" x="363.4271" y="866.66374" width="17.07341" height="17.07341" transform="translate(-632.79927 614.9959) rotate(-59.02058)"/>
      <rect class="cls-8" x="381.99908" y="941.03807" width="17.07341" height="17.07341" transform="translate(-687.55185 667.01024) rotate(-59.02058)"/>
      <rect class="cls-8" x="346.07761" y="876.28887" width="17.07341" height="17.07341" transform="translate(-599.09057 1095.64703) rotate(-89.02058)"/>
      <rect class="cls-8" x="399.34857" y="931.41294" width="17.07341" height="17.07341" transform="translate(-601.84619 1203.09203) rotate(-89.02058)"/>
      <rect class="cls-8" x="335.86507" y="893.29923" width="17.07341" height="17.07341" transform="translate(-340.07422 1511.88207) rotate(-119.02058)"/>
      <rect class="cls-8" x="409.56111" y="914.40259" width="17.07341" height="17.07341" transform="translate(-249.08021 1607.66635) rotate(-119.02058)"/>
      <rect class="cls-8" x="335.52592" y="913.1369" width="17.07341" height="17.07341" transform="translate(101.68521 1760.3555) rotate(-149.02058)"/>
      <rect class="cls-8" x="409.90025" y="894.56492" width="17.07341" height="17.07341" transform="translate(249.38409 1764.14351) rotate(-149.02058)"/>
      <rect class="cls-8" x="345.15105" y="930.48639" width="17.07341" height="17.07341" transform="translate(628.32578 1755.33827) rotate(-179.02058)"/>
      <rect class="cls-8" x="400.27512" y="877.21542" width="17.07341" height="17.07341" transform="translate(739.47644 1649.74637) rotate(-179.02058)"/>
    </g>
    <circle class="cls-24" cx="318.66186" cy="783.77118" r="30.2065"/>
  </g>
  <polygon class="cls-25" points="318.662 777.071 327.322 777.071 322.992 784.571 318.662 792.071 314.332 784.571 310.002 777.071 318.662 777.071"/>
</a>
</svg>
