<?xml version="1.0" standalone="no"?>
<!DOCTYPE svg PUBLIC "-//W3C//DTD SVG 20010904//EN"
 "http://www.w3.org/TR/2001/REC-SVG-20010904/DTD/svg10.dtd">
<svg version="1.0" xmlns="http://www.w3.org/2000/svg"
 width="1599.000000pt" height="1599.000000pt" viewBox="0 0 1599.000000 1599.000000"
 preserveAspectRatio="xMidYMid meet">
<metadata>
Created by potrace 1.11, written by Peter Selinger 2001-2013
</metadata>
<g transform="translate(0.000000,1599.000000) scale(0.100000,-0.100000)"
fill="#000000" stroke="none">
<path d="M3987 14812 c-10 -10 -17 -21 -17 -24 0 -5 -118 -212 -161 -283 -11
-16 -22 -37 -26 -45 -4 -8 -26 -46 -48 -85 -23 -38 -53 -90 -67 -115 -14 -25
-49 -85 -78 -135 -29 -49 -64 -110 -78 -135 -14 -25 -42 -73 -63 -107 -21 -35
-40 -72 -44 -83 -3 -11 -11 -20 -16 -20 -5 0 -8 -3 -7 -7 1 -5 -5 -19 -13 -33
-27 -43 -85 -143 -111 -190 -14 -25 -66 -115 -115 -200 -126 -218 -537 -928
-561 -970 -10 -19 -95 -165 -187 -325 -92 -159 -176 -304 -186 -322 -10 -17
-29 -50 -43 -72 -15 -22 -26 -43 -26 -45 0 -3 -14 -29 -31 -58 -31 -51 -48
-81 -87 -150 -11 -18 -45 -78 -77 -133 -32 -55 -82 -140 -110 -190 -29 -49
-86 -149 -128 -222 -42 -72 -85 -147 -95 -165 -11 -18 -70 -121 -132 -228
-161 -277 -301 -522 -314 -545 -6 -11 -16 -27 -22 -35 -6 -8 -25 -40 -41 -70
-17 -30 -72 -127 -123 -215 -51 -88 -101 -176 -112 -195 -11 -19 -62 -107
-113 -195 -51 -88 -102 -176 -113 -195 -11 -19 -43 -75 -72 -125 -29 -49 -62
-108 -75 -130 -46 -82 -385 -671 -394 -685 -56 -87 -99 -174 -94 -187 4 -9 35
-65 70 -125 35 -60 63 -111 63 -114 0 -3 8 -17 19 -32 17 -25 136 -229 194
-332 14 -25 82 -144 152 -265 70 -121 139 -240 153 -265 14 -25 80 -139 147
-255 67 -115 166 -286 220 -380 77 -133 380 -658 485 -840 9 -16 50 -86 90
-155 40 -69 82 -141 92 -160 11 -19 25 -44 31 -55 7 -11 39 -67 72 -125 33
-57 65 -112 70 -122 29 -50 183 -317 204 -352 12 -23 38 -66 56 -96 18 -30 68
-116 110 -190 43 -74 87 -151 98 -170 11 -19 30 -53 43 -75 12 -22 61 -107
109 -190 48 -82 99 -170 113 -195 14 -25 82 -142 150 -260 69 -118 136 -235
150 -260 13 -25 28 -49 32 -55 4 -5 19 -30 32 -55 14 -25 76 -132 137 -238 61
-106 120 -207 130 -225 10 -17 60 -104 111 -192 51 -88 100 -174 110 -190 9
-17 50 -87 90 -155 40 -69 82 -141 92 -160 23 -40 165 -287 189 -328 29 -49
131 -226 154 -266 l22 -39 3999 0 3999 0 27 46 c14 25 37 65 51 89 13 23 48
84 77 133 29 50 62 108 75 130 12 22 61 106 107 187 47 80 88 152 92 160 3 7
17 31 31 53 14 22 44 74 67 115 24 41 47 83 53 92 5 10 35 61 66 115 31 54 97
168 147 253 323 557 492 853 492 859 0 4 5 12 12 19 6 6 28 40 47 76 29 52
127 221 265 459 10 18 54 95 98 171 106 183 107 187 168 291 29 50 60 104 70
120 9 17 126 219 260 450 133 231 254 440 268 465 14 25 48 86 77 135 29 50
62 106 73 125 11 19 43 76 72 125 29 50 64 110 78 135 30 53 62 108 80 135 6
11 15 27 19 35 4 8 85 150 181 315 96 165 184 318 197 340 48 85 259 451 274
477 16 27 109 188 141 243 10 17 41 71 70 120 29 50 62 108 74 130 13 22 57
99 99 172 43 72 80 138 83 146 3 9 -35 86 -92 184 -53 92 -113 195 -132 228
-19 33 -43 75 -53 93 -11 17 -27 47 -38 65 -88 154 -364 631 -408 707 -31 52
-64 110 -75 128 -33 59 -93 163 -188 327 -121 209 -121 210 -160 280 -19 33
-41 71 -50 85 -10 14 -28 45 -42 70 -25 44 -488 848 -545 945 -16 28 -32 57
-36 65 -4 8 -16 29 -27 45 -11 17 -23 37 -27 45 -6 12 -153 271 -183 320 -5 8
-49 85 -98 170 -50 85 -132 227 -183 315 -50 88 -168 293 -262 455 -93 162
-196 339 -228 393 -33 54 -59 100 -59 102 0 2 -14 28 -32 57 -17 29 -54 94
-83 143 -28 50 -103 178 -165 285 -62 107 -124 215 -138 240 -14 25 -53 92
-87 150 -34 58 -65 112 -69 120 -4 8 -12 24 -19 35 -7 11 -25 43 -42 70 -16
28 -39 67 -50 87 -11 21 -47 83 -80 140 -33 57 -62 107 -64 113 -2 5 -16 28
-31 50 -15 22 -27 42 -27 45 0 3 -6 16 -15 30 -25 40 -108 184 -172 298 l-29
52 -3997 0 c-3859 0 -3997 -1 -4013 -18z"/>
</g>
</svg>
